<svg width="54" height="54" viewBox="0 0 54 54" fill="none" xmlns="http://www.w3.org/2000/svg">
<g clip-path="url(#clip0_1_565)">
<rect width="54" height="54" rx="19" fill="#F03E3D"/>
<path d="M32.5714 20.4286H33.4286C33.5893 20.4286 33.7143 20.3036 33.7143 20.1429V19.5714C33.7143 19.4107 33.5893 19.2857 33.4286 19.2857H20.2857C20.125 19.2857 20 19.4107 20 19.5714V20.1429C20 20.3036 20.125 20.4286 20.2857 20.4286H21.1429C21.1429 23.7321 22.7232 26.125 24.4732 27.2857C22.7232 28.4464 21.1429 30.8393 21.1429 34.1429H20.2857C20.125 34.1429 20 34.2679 20 34.4286V35C20 35.1607 20.125 35.2857 20.2857 35.2857H33.4286C33.5893 35.2857 33.7143 35.1607 33.7143 35V34.4286C33.7143 34.2679 33.5893 34.1429 33.4286 34.1429H32.5714C32.5714 30.8393 30.9911 28.4464 29.2411 27.2857C30.9911 26.125 32.5714 23.7321 32.5714 20.4286ZM31.4286 20.4286C31.4286 21.7321 31.1339 22.8839 30.6696 23.8571H23.0446C22.5804 22.8839 22.2857 21.7321 22.2857 20.4286H31.4286ZM30.9196 31.2857H22.7946C23.4554 29.5625 24.6429 28.3393 25.8304 27.8571H27.8839C29.0714 28.3393 30.2589 29.5625 30.9196 31.2857Z" fill="white"/>
</g>
<defs>
<clipPath id="clip0_1_565">
<rect width="54" height="54" fill="white"/>
</clipPath>
</defs>
</svg>
