<svg width="54" height="62" viewBox="0 0 54 62" fill="none" xmlns="http://www.w3.org/2000/svg">
<rect width="54" height="54" rx="19" fill="#02897A"/>
<path d="M32.1161 28.5982L22.9732 19.4554C22.8661 19.3393 22.7232 19.2857 22.5714 19.2857C22.5 19.2857 22.4196 19.3036 22.3571 19.3304C22.1429 19.4196 22 19.625 22 19.8571V33.2857C22 33.5179 22.1429 33.7232 22.3571 33.8125C22.4196 33.8393 22.5 33.8571 22.5714 33.8571C22.7232 33.8571 22.8661 33.7946 22.9732 33.6875L25.7589 30.9018L27.4643 34.9375C27.5893 35.2232 27.9196 35.3661 28.2143 35.2411L29.7946 34.5714C30.0804 34.4464 30.2232 34.1161 30.0982 33.8214L28.3036 29.5714H31.7143C31.9464 29.5714 32.1518 29.4286 32.2411 29.2143C32.3304 29.0089 32.2857 28.7589 32.1161 28.5982Z" fill="white"/>
</svg>
