<svg width="18" height="28" viewBox="0 0 18 28" fill="none" xmlns="http://www.w3.org/2000/svg">
<path d="M14.8182 2H3.18182C1.97727 2 1 3.00781 1 4.25V23.75C1 24.9922 1.97727 26 3.18182 26H14.8182C16.0227 26 17 24.9922 17 23.75V4.25C17 3.00781 16.0227 2 14.8182 2ZM11.1818 22.9578C11.1818 23.4125 10.8545 23.75 10.4545 23.75H7.50455C7.14545 23.75 6.81818 23.4125 6.81818 23C6.81818 22.5875 7.14545 22.25 7.54545 22.25H10.4545C10.8545 22.25 11.1818 22.5875 11.1818 22.9578ZM14.0909 20H3.90909V5H14.0909V20Z" fill="#02897A"/>
</svg>
