<svg width="54" height="62" viewBox="0 0 54 62" fill="none" xmlns="http://www.w3.org/2000/svg">
<rect width="54" height="54" rx="19" fill="#4D8DFF"/>
<path d="M27.4821 25.6429L28.6518 26.1875L30.3929 25.6696V24.4554C30.3929 22.3929 28.6518 20.7411 26.5714 20.7411C24.5 20.7411 22.75 22.3839 22.75 24.4286V29.9643C22.75 30.4732 22.3393 30.875 21.8393 30.875C21.3393 30.875 20.9286 30.4732 20.9286 29.9643V27.625H18C18 29.9732 18 30 18 30C18 32.1161 19.7143 33.8304 21.8304 33.8304C23.9286 33.8304 25.6607 32.1429 25.6607 30.0536V24.5893C25.6607 24.0893 26.0714 23.6786 26.5714 23.6786C27.0714 23.6786 27.4821 24.0893 27.4821 24.5893V25.6429ZM32.2143 27.625V30.0804C32.2143 30.5804 31.8036 30.9821 31.3036 30.9821C30.8036 30.9821 30.3929 30.5804 30.3929 30.0804V27.6696L28.6518 28.1875L27.4821 27.6429V30.0357C27.4821 32.1339 29.2054 33.8304 31.3125 33.8304C33.4286 33.8304 35.1429 32.1161 35.1429 30C35.1429 30 35.1429 29.9732 35.1429 27.625H32.2143Z" fill="white"/>
</svg>
