<svg width="20" height="18" viewBox="0 0 20 18" fill="none" xmlns="http://www.w3.org/2000/svg">
<path d="M19.02 6.46146C18.9626 6.29487 18.8569 6.1485 18.7159 6.0404C18.575 5.93231 18.405 5.86722 18.2269 5.85319L13.0174 5.44558L10.7631 0.531754C10.6913 0.37349 10.5745 0.239068 10.4268 0.144711C10.2792 0.050354 10.1069 9.52702e-05 9.9309 1.35311e-07C9.75488 -9.49996e-05 9.58258 0.0499776 9.43481 0.144175C9.28704 0.238372 9.17012 0.372668 9.09815 0.530855L6.84384 5.44558L1.63435 5.85319C1.45931 5.86684 1.29198 5.92986 1.15237 6.03471C1.01276 6.13955 0.906783 6.28178 0.847113 6.44439C0.787443 6.60699 0.776609 6.78308 0.815908 6.95158C0.855208 7.12009 0.942976 7.27388 1.06871 7.39455L4.91849 11.09L3.55695 16.8956C3.51561 17.0713 3.52886 17.2552 3.59498 17.4234C3.66111 17.5917 3.77705 17.7364 3.92777 17.839C4.07849 17.9415 4.25702 17.997 4.4402 17.9984C4.62338 17.9998 4.80276 17.9469 4.95504 17.8467L9.93061 14.5804L14.9062 17.8467C15.0618 17.9484 15.2454 18.0008 15.4322 17.9968C15.619 17.9927 15.8 17.9325 15.951 17.8241C16.102 17.7157 16.2156 17.5644 16.2766 17.3905C16.3377 17.2166 16.3432 17.0285 16.2924 16.8515L14.6211 11.0927L18.766 7.41975C19.0374 7.1786 19.137 6.80248 19.02 6.46146Z" fill="#F3CD03"/>
</svg>
