<svg width="19" height="18" viewBox="0 0 19 18" fill="none" xmlns="http://www.w3.org/2000/svg">
<path d="M4.85105 11.0901L3.48951 16.8956C3.44734 17.0714 3.46 17.2556 3.52582 17.4242C3.59165 17.5928 3.70757 17.738 3.85846 17.8407C4.00936 17.9434 4.1882 17.9989 4.37163 18C4.55507 18.0011 4.73456 17.9476 4.88668 17.8467L9.86225 14.5804L14.8378 17.8467C14.9935 17.9485 15.177 18.0009 15.3638 17.9968C15.5506 17.9928 15.7317 17.9325 15.8826 17.8241C16.0336 17.7158 16.1472 17.5644 16.2083 17.3906C16.2693 17.2167 16.2748 17.0286 16.224 16.8515L14.5527 11.0928L18.6976 7.41979C18.8304 7.30208 18.9252 7.14864 18.9703 6.97844C19.0155 6.80824 19.0089 6.62875 18.9516 6.46216C18.8942 6.29557 18.7885 6.14919 18.6476 6.04113C18.5066 5.93306 18.3366 5.86805 18.1585 5.85413L12.949 5.44562L10.6947 0.531792C10.6228 0.373567 10.506 0.239208 10.3583 0.144931C10.2105 0.0506541 10.0383 0.000488281 9.86225 0.000488281C9.68622 0.000488281 9.51395 0.0506541 9.36624 0.144931C9.21852 0.239208 9.10167 0.373567 9.02979 0.531792L6.77548 5.44562L1.56599 5.85323C1.39096 5.86688 1.22363 5.9299 1.08401 6.03475C0.944403 6.13959 0.838423 6.28182 0.778753 6.44442C0.719083 6.60703 0.70825 6.78311 0.747549 6.95162C0.786848 7.12013 0.874616 7.27391 1.00035 7.39459L4.85105 11.0901ZM7.45808 7.19753C7.62118 7.18488 7.77783 7.12925 7.91159 7.03648C8.04536 6.94371 8.15131 6.81721 8.21835 6.67025L9.86225 3.08813L11.5061 6.67025C11.5732 6.81721 11.6791 6.94371 11.8129 7.03648C11.9467 7.12925 12.1033 7.18488 12.2664 7.19753L15.896 7.48097L12.907 10.13C12.6475 10.3603 12.5442 10.7149 12.6392 11.046L13.7842 14.9916L10.3703 12.7502C10.2205 12.6512 10.0441 12.5983 9.86362 12.5983C9.68315 12.5983 9.50677 12.6512 9.35693 12.7502L5.78951 15.0924L6.74898 11.0019C6.78416 10.8515 6.77944 10.6946 6.73527 10.5465C6.6911 10.3984 6.60897 10.2639 6.49678 10.1561L3.72069 7.49087L7.45808 7.19753Z" fill="#F3CD03"/>
</svg>
